<svg version="1.0" xmlns="http://www.w3.org/2000/svg" viewBox="0 0 836.000000 255.000000" preserveAspectRatio="xMidYMid meet">
  <g transform="translate(0.000000,255.000000) scale(0.100000,-0.100000)" stroke="none">
    <path fill="black" d="M2168 2463 c-10 -2 -18 -10 -18 -16 1 -16 209 -287 225 -294 12 -4
                        390 129 403 142 17 17 -202 117 -332 152 -83 22 -225 30 -278 16z"></path>
    <path fill="black" d="M1894 2424 c-85 -45 -311 -212 -442 -327 -76 -66 -296 -286 -292
                        -290 3 -3 55 8 115 23 61 15 281 72 490 125 209 53 416 106 460 117 44 11 83
                        23 87 27 11 10 -229 319 -262 336 -43 22 -100 19 -156 -11z"></path>
    <path fill="black" d="M4160 2410 c-293 -17 -643 -75 -975 -161 -66 -17 -138 -35 -160 -40
                        -22 -6 -44 -15 -50 -21 -7 -7 -3 -8 14 -3 107 32 565 102 851 130 323 31 737
                        6 993 -61 248 -64 486 -185 626 -317 45 -43 51 -46 51 -26 0 30 -65 112 -143
                        181 -171 151 -398 250 -680 297 -62 11 -351 32 -387 29 -8 -1 -71 -4 -140 -8z"></path>
    <path fill="black" d="M4266 2174 c-50 -7 -93 -17 -98 -22 -10 -10 28 -168 49 -200 8 -13
                        29 -30 46 -37 27 -11 570 -171 662 -195 40 -11 416 -119 435 -126 10 -3 12 -2
                        5 5 -5 5 -64 30 -130 55 -127 47 -563 216 -605 234 -14 6 -72 29 -129 52 -236
                        93 -266 129 -173 209 26 23 43 40 37 40 -5 -1 -50 -7 -99 -15z"></path>
    <path fill="#E00307" d="M2900 2033 c-567 -30 -1006 -100 -1525 -244 -226 -63 -278 -88 -112
                        -54 168 34 568 95 757 116 128 13 307 13 344 -1 15 -5 29 -16 32 -25 6 -14
                        -25 -188 -47 -267 l-10 -38 -238 0 c-179 0 -241 -3 -248 -12 -13 -17 -43 -131
                        -43 -163 0 -25 1 -25 89 -25 50 0 93 -4 96 -10 3 -5 -1 -35 -10 -67 -9 -32
                        -28 -105 -44 -163 -16 -58 -56 -205 -90 -326 -33 -122 -61 -230 -61 -242 0
                        -11 7 -23 16 -26 22 -8 127 -7 140 2 10 7 31 80 160 552 35 129 68 245 74 258
                        9 21 16 22 108 22 118 0 119 1 157 115 83 247 231 387 443 417 103 14 166 2
                        278 -52 137 -66 262 -205 317 -351 69 -182 62 -445 -18 -669 -81 -226 -236
                        -411 -392 -470 -84 -31 -139 -35 -229 -15 -137 30 -248 98 -318 194 -87 118
                        -154 309 -177 504 -6 51 -14 112 -19 137 -15 85 -11 -124 5 -269 15 -136 19
                        -156 61 -293 43 -143 119 -267 211 -347 140 -121 397 -176 556 -118 373 136
                        617 518 617 969 0 353 -159 696 -395 853 -140 93 -261 120 -485 108z"></path>
    <path fill="black" d="M546 2022 c-10 -16 14 -75 77 -197 55 -107 65 -120 91 -123 47 -6 50
                        9 22 97 -31 96 -31 98 -6 106 39 12 59 -3 62 -48 l3 -42 75 3 c112 3 194 12
                        210 22 19 12 -4 38 -89 98 l-65 46 -160 23 c-178 25 -212 27 -220 15z"></path>
    <path fill="black" d="M3012 1695 c-116 -37 -275 -135 -303 -187 -10 -19 -7 -26 35 -65 25
                        -24 51 -41 56 -38 5 3 13 24 16 46 4 22 16 54 28 71 24 35 131 97 212 123 46
                        14 54 21 54 41 0 20 -5 24 -27 23 -16 -1 -47 -7 -71 -14z"></path>
    <path fill="black" d="M3211 1595 c-171 -217 -184 -314 -54 -409 52 -38 154 -81 175 -73 7
                        2 -9 15 -37 28 -73 34 -150 114 -158 164 -8 52 -1 81 37 134 28 40 163 141
                        188 141 22 0 0 22 -49 50 l-52 30 -50 -65z"></path>
    <path fill="black" d="M3026 1475 c-38 -48 -87 -100 -110 -116 -68 -48 -79 -61 -62 -77 34
                        -35 150 63 211 179 56 107 40 113 -39 14z"></path>
    <path fill="#E00307" d="M597 1458 c-19 -35 -60 -112 -92 -173 -32 -60 -70 -132 -85 -160 -15
                        -27 -53 -99 -85 -160 -32 -60 -98 -185 -147 -277 -49 -92 -88 -176 -86 -185 3
                        -15 15 -18 82 -18 l78 0 52 95 c28 53 55 101 59 108 6 8 46 12 137 12 l129 0
                        3 -107 3 -108 75 0 75 0 6 65 c4 36 7 266 8 511 1 399 -1 448 -15 453 -9 3
                        -49 6 -89 6 l-73 0 -35 -62z m56 -403 c-2 -107 -6 -151 -15 -157 -18 -11 -130
                        -10 -148 2 -17 10 -21 0 89 208 30 56 59 101 65 99 7 -3 10 -53 9 -152z"></path>
    <path fill="#E00307" d="M1081 1506 c-8 -9 -10 -153 -9 -517 l3 -504 85 -3 c73 -2 87 0 96 15
                        6 10 48 90 94 178 45 88 102 196 125 240 37 71 105 200 252 484 48 93 51 107
                        26 114 -29 8 -127 8 -139 -1 -6 -4 -52 -88 -104 -187 -203 -395 -252 -485
                        -261 -485 -5 0 -9 139 -9 334 0 295 -2 335 -16 340 -31 12 -131 6 -143 -8z"></path>
    <path fill="black" d="M6510 1495 c-1 -23 -33 -146 -155 -585 -117 -425 -115 -414 -106
                        -423 4 -4 137 -6 296 -5 l289 3 20 81 c10 45 16 89 13 98 -6 14 -30 16 -195
                        16 -104 0 -191 2 -194 5 -5 5 11 73 45 185 l13 45 187 3 187 2 15 58 c9 31 21
                        70 26 86 17 52 5 56 -182 56 -194 0 -181 -10 -145 110 l22 75 193 5 194 5 24
                        89 c13 49 20 93 16 97 -5 5 -133 10 -286 11 -271 3 -277 3 -277 -17z"></path>
    <path fill="black" d="M4092 1432 c-12 -42 -54 -194 -93 -337 -39 -143 -77 -280 -84 -305
                        -48 -174 -79 -299 -75 -303 7 -7 37 -9 111 -8 64 1 67 2 72 28 6 31 10 46 65
                        243 l37 135 37 3 c46 4 76 -11 89 -46 14 -37 36 -142 53 -257 8 -53 16 -98 18
                        -101 7 -7 169 -7 176 0 16 16 -30 269 -66 364 -22 57 -22 57 45 86 80 35 152
                        138 173 247 16 84 12 189 -9 234 -39 86 -71 95 -325 95 l-201 0 -23 -78z m366
                        -138 c29 -20 28 -64 -1 -124 -32 -66 -69 -86 -173 -94 -50 -4 -91 -3 -96 2 -8
                        8 9 83 48 215 5 15 19 17 102 17 72 0 103 -4 120 -16z"></path>
    <path fill="black" d="M5071 1428 c-24 -46 -58 -110 -76 -143 -17 -33 -58 -109 -90 -170
                        -32 -60 -70 -132 -85 -160 -106 -193 -240 -457 -235 -465 3 -6 44 -10 90 -10
                        l85 0 36 72 c20 40 47 89 60 110 l25 39 122 -3 122 -3 3 -107 3 -107 32 -3
                        c18 -2 56 -1 85 0 l52 4 2 336 c1 186 2 416 2 512 l1 175 -95 3 -95 3 -44 -83z
                        m64 -394 l-7 -134 -75 0 c-41 0 -73 3 -71 8 16 37 133 260 141 271 18 22 20 0
                        12 -145z"></path>
    <path fill="black" d="M5716 1502 c-3 -5 -12 -34 -20 -63 -8 -30 -35 -130 -61 -224 -26 -93
                        -53 -195 -61 -225 -8 -30 -42 -153 -75 -274 -34 -121 -57 -222 -52 -227 9 -9
                        160 -16 166 -8 4 4 70 238 82 290 8 33 131 157 144 144 5 -6 30 -100 56 -210
                        26 -110 48 -206 51 -212 2 -9 31 -13 99 -13 91 0 95 1 95 22 0 11 -31 142 -70
                        290 -38 148 -70 280 -70 293 0 17 26 52 84 112 171 180 202 216 223 264 l22
                        49 -99 0 -98 0 -95 -107 c-158 -179 -226 -249 -227 -232 0 8 16 73 35 144 20
                        71 36 142 38 159 l2 31 -82 3 c-45 1 -84 -1 -87 -6z"></path>
    <path fill="black" d="M7205 1453 c-9 -32 -20 -71 -25 -86 -17 -51 -7 -57 97 -57 l95 0 -7
                        -32 c-4 -18 -50 -186 -102 -372 -52 -187 -97 -359 -100 -383 l-6 -43 86 0 86
                        0 15 53 c8 28 24 86 35 127 11 41 55 203 98 360 l78 285 105 5 105 5 23 83
                        c13 46 21 89 18 97 -5 13 -51 15 -295 15 l-290 0 -16 -57z"></path>
    <path fill="black" d="M8045 1438 c-21 -40 -52 -100 -70 -133 -36 -66 -108 -204 -192 -365
                        -31 -58 -63 -118 -73 -135 -58 -99 -160 -307 -155 -315 3 -6 44 -10 90 -10
                        l85 0 51 102 c28 57 57 106 63 110 16 11 228 10 245 -1 10 -6 13 -31 11 -97
                        -1 -49 -2 -95 -1 -102 1 -10 22 -12 84 -10 l82 3 7 500 c5 275 6 506 3 513 -3
                        8 -32 12 -99 12 l-94 0 -37 -72z m71 -260 c-3 -13 -6 -80 -6 -150 l0 -128 -73
                        0 c-41 0 -76 3 -80 6 -3 3 12 41 33 83 21 42 52 106 69 144 20 43 37 67 47 67
                        12 0 15 -6 10 -22z"></path>
    <path fill="black" d="M2626 1345 c-46 -46 -93 -300 -82 -440 13 -151 23 -171 70 -140 47
                        31 55 67 59 265 3 148 7 194 22 227 20 51 16 67 -24 87 -27 14 -31 14 -45 1z"></path>
    <path d="M2796 1123 c3 -23 0 -55 -9 -80 -18 -54 -7 -55 49 -3 49 45 69 51 61
                        18 -3 -11 0 -37 8 -55 11 -27 20 -34 37 -31 27 4 35 32 15 53 -21 21 -10 52
                        29 82 19 14 34 32 34 39 0 25 -50 15 -82 -16 -37 -37 -45 -37 -88 0 -48 41
                        -62 39 -54 -7z"></path>
    <path fill="black" d="M3245 960 c-181 -21 -224 -97 -175 -316 37 -167 32 -160 87 -156 78
                        5 79 7 30 62 -121 135 -124 258 -9 331 54 34 130 59 181 59 21 0 31 4 26 9
                        -16 15 -67 19 -140 11z"></path>
    <path fill="black" d="M2784 828 c-7 -11 21 -38 41 -38 34 0 66 -66 115 -238 15 -53 32 -98
                        37 -99 16 -6 4 142 -19 240 -27 117 -52 147 -118 147 -27 0 -52 -5 -56 -12z"></path>
    <path fill="black" d="M2654 712 c-11 -15 -31 -41 -43 -58 l-23 -32 39 -53 c70 -94 163
                        -169 211 -169 33 0 31 11 -11 63 -35 43 -108 189 -131 260 -7 23 -17 21 -42
                        -11z"></path>
  </g>
</svg>