<svg width="836" height="437" viewBox="0 0 836 437" fill="none" xmlns="http://www.w3.org/2000/svg">
<path d="M351.645 8.83394C305.693 10.8717 259.232 22.7928 219.087 42.9668C201.359 51.8311 190.355 58.6577 177.313 69.2542C128.508 108.38 110.881 160.751 127.591 216.79C128.712 220.56 130.036 223.922 130.546 224.228C131.157 224.635 131.055 223.616 130.444 221.986C125.757 209.759 123.21 182.249 125.349 166.355C129.527 134.871 146.542 105.323 173.033 83.213C215.012 48.0612 272.172 28.3967 355.313 20.4493C378.034 18.3096 423.783 16.5775 440.798 17.3926C457.61 18.1059 457.304 16.9851 439.779 13.9284C413.696 9.44528 380.785 7.50938 351.645 8.83394Z" fill="#D02F38"/>
<path d="M490.724 44.4948C478.395 44.9023 459.546 46.0231 448.746 46.8382C438.047 47.7552 428.164 48.4684 426.941 48.4684C422.458 48.4684 426.534 50.2005 436.213 52.544C464.844 59.3706 497.143 73.2275 521.698 89.1222C529.34 94.0129 531.174 94.2166 553.182 91.7713C613.5 85.1485 662.509 81.0729 681.257 81.0729C692.159 81.0729 701.125 80.6654 701.125 80.2578C701.125 79.1371 685.23 77.4049 656.294 75.3672C637.954 74.0426 626.338 73.8388 598.217 74.552C534.74 75.8766 534.536 75.8766 526.895 72.5143C523.227 70.9859 512.019 66.299 501.932 62.1216C491.845 58.046 483.49 54.1742 483.286 53.6648C482.98 52.8497 504.581 52.544 553.488 52.544C592.307 52.544 623.791 52.3402 623.587 52.1364C623.384 51.8308 614.01 50.5062 602.802 49.0798C567.141 44.5967 529.646 43.0683 490.724 44.4948Z" fill="black"/>
<path d="M335.546 55.7034C318.938 58.2506 301.108 67.9301 284.907 83.3154C276.654 91.1608 270.031 98.8025 273.292 96.8666C274.005 96.3572 280.22 92.4854 287.047 88.1041C318.123 68.3377 323.727 66.198 345.022 66.4018C362.139 66.5037 379.97 69.6622 399.94 75.9793C410.435 79.3417 413.593 80.87 415.937 83.4172C417.567 85.1494 418.891 86.8815 418.891 87.289C418.891 89.123 411.148 94.4213 406.461 95.8477C399.736 97.8855 377.117 102.063 310.38 113.576C254.137 123.358 246.699 124.479 246.699 123.154C246.699 122.645 248.533 120.403 250.774 118.263C253.016 116.124 254.85 113.984 254.85 113.678C254.85 111.233 218.985 118.06 202.988 123.562C194.43 126.516 177.924 133.852 178.535 134.566C178.739 134.769 184.241 133.343 190.66 131.407C197.079 129.471 208.389 126.822 215.623 125.396C242.114 120.403 241.401 120.403 237.733 125.701C233.657 131.611 233.351 131.305 244.254 130.592C267.28 128.962 291.734 126.618 339.927 121.218C456.387 108.38 468.817 106.546 474.013 101.35C476.968 98.3949 476.357 96.4591 470.957 91.1608C456.998 77.7115 417.567 62.8357 382.008 57.6393C366.215 55.2959 344.105 54.3789 335.546 55.7034Z" fill="black"/>
<path d="M630.822 129.982C609.221 131.001 587.824 133.242 568.466 136.706C548.597 140.171 549.922 139.559 552.673 143.737C556.544 149.748 571.93 157.39 586.5 160.65C598.625 163.401 653.849 161.669 655.784 158.511C655.988 158.103 654.969 153.212 653.339 147.507L650.486 137.318L653.645 136.706C655.377 136.503 671.272 135.178 688.898 133.854C714.574 132.02 719.669 131.408 714.371 130.899C702.552 129.676 649.162 129.167 630.822 129.982Z" fill="#D02F38"/>
<path d="M450.987 168.189C440.594 170.431 423.884 177.156 425.209 178.48C425.515 178.684 429.285 177.869 433.768 176.646C444.568 173.691 467.085 173.386 476.969 176.137C480.637 177.054 493.373 182.76 505.294 188.567C517.215 194.477 527.2 199.266 527.404 199.266C527.709 199.266 527.098 197.534 525.977 195.394C521.392 186.428 509.369 176.137 498.569 171.857C486.241 166.967 464.029 165.235 450.987 168.189Z" fill="black"/>
<path d="M209.409 186.223C202.684 193.152 187.706 208.843 176.193 221.171C164.577 233.5 147.868 251.127 139.003 260.297L122.905 277.007L103.036 277.516C81.6397 278.025 79.602 277.618 73.7943 272.422C69.5149 268.448 67.7828 273.542 71.4508 279.452C76.0358 286.992 86.938 291.984 98.7571 291.984C102.323 291.984 105.074 292.392 104.87 292.901C104.259 294.633 83.0662 312.668 70.8395 321.838C56.9826 332.332 44.2464 340.178 35.5859 343.642C28.8612 346.393 18.7742 348.635 17.7553 347.616C17.3477 347.31 17.1439 344.661 17.3477 341.91C17.5515 336.204 16.3288 335.389 12.457 338.649C10.8268 339.872 10.2155 341.604 10.1136 344.661C10.0117 350.367 13.374 355.461 19.2836 359.027C23.4611 361.473 25.0913 361.778 32.733 361.778C40.6803 361.778 42.1068 361.473 49.3409 358.008C68.496 348.838 89.1795 332.944 122.701 301.766L134.724 290.558L148.581 289.233C156.223 288.52 162.54 288.011 162.743 288.214C162.947 288.418 160.808 293.716 158.057 299.932C151.536 314.4 149.498 322.245 150.211 329.989C150.924 337.732 155.102 346.291 159.483 348.94C163.66 351.589 165.393 351.589 167.532 349.246C170.181 346.291 169.774 343.948 166.615 343.948C163.966 343.948 163.864 343.846 164.476 338.955C165.189 332.536 171.302 316.641 179.453 299.422C186.28 284.954 186.382 284.852 195.042 284.852C199.22 284.852 199.933 285.158 199.424 286.584C193.718 305.332 193.412 324.487 198.608 335.389C200.239 338.955 200.442 339.057 204.722 338.548C207.167 338.242 212.567 336.408 216.847 334.268C236.919 324.385 261.474 287.705 263.614 264.576C265.346 245.727 259.742 248.783 249.247 272.32C241.198 290.252 233.862 301.562 221.839 314.196C214.401 322.042 209.103 325.71 208.899 323.366C208.492 319.291 210.326 313.585 220.922 284.852C226.934 268.652 227.443 266.716 226.424 263.455C225.303 259.685 222.145 256.119 218.986 254.999C216.235 253.98 212.567 257.75 208.084 266.41L203.907 274.561L198.507 273.95C195.654 273.644 193.106 273.237 192.903 273.135C192.801 273.033 199.016 260.399 206.861 245.013C227.137 205.175 233.556 189.586 231.926 183.269C231.213 180.11 225.507 173.793 223.367 173.793C222.45 173.793 216.133 179.397 209.409 186.223ZM198.405 226.979C192.903 235.64 179.25 258.361 173.442 268.754C170.283 274.357 169.876 274.663 166.31 274.663C164.17 274.663 159.483 274.969 155.917 275.376L149.396 275.988L166.717 257.75C176.295 247.764 188.42 234.825 193.616 229.017C198.914 223.311 203.397 218.624 203.601 218.624C203.703 218.624 201.461 222.394 198.405 226.979Z" fill="black"/>
<path d="M596.384 182.148C578.146 196.82 546.458 250.414 535.454 285.464C531.99 296.57 531.582 297.283 526.08 302.275C517.929 309.815 512.936 313.178 508.25 314.604C504.582 315.725 504.072 315.623 502.442 313.687C499.691 310.223 501.321 303.498 509.065 286.381C516.095 270.894 516.503 268.55 512.223 267.735C506.721 266.614 500.608 271.607 485.121 289.947C472.792 304.517 464.539 312.362 461.584 312.362C459.547 312.362 459.445 312.057 460.056 307.676C460.871 301.257 469.736 284.751 477.581 274.765C486.853 263.048 496.532 256.12 505.702 254.795C510.797 253.98 512.835 255.203 516.808 261.316C518.744 264.475 520.782 263.354 520.782 259.176C520.782 254.693 517.42 250.72 510.797 247.459C505.906 245.014 503.665 244.606 496.838 244.606C489.808 244.606 487.872 245.014 482.675 247.663C474.83 251.637 464.335 261.418 457.713 271.097C452.312 278.943 445.384 292.596 445.384 295.449C445.384 299.728 428.063 313.993 421.644 315.113C413.391 316.438 413.9 308.694 423.784 283.834C434.482 256.935 435.603 248.987 428.776 245.523C425.923 243.995 424.293 243.893 414.817 244.912C390.67 247.561 388.224 247.561 378.545 244.606C373.45 242.976 375.59 252.35 381.398 256.629C382.926 257.75 384.251 259.482 384.149 260.297C384.149 261.214 382.213 265.799 379.767 270.486L375.488 278.943L374.164 273.339C371.514 261.418 362.956 254.591 351.85 255.508C347.061 255.916 345.736 256.527 343.189 259.38C339.521 263.558 340.744 265.086 345.94 262.946C350.729 260.908 354.397 262.437 356.944 267.531C363.567 280.777 349.812 317.355 335.853 324.08C332.389 325.71 331.981 325.71 330.249 324.08C327.396 321.532 326.887 315.725 328.721 306.759C332.185 289.947 341.151 274.765 348.589 273.135C355.212 271.709 349.914 266.41 341.763 266.41C335.446 266.309 332.389 267.531 327.091 272.32C321.385 277.414 316.596 285.158 313.641 293.717C310.687 302.479 308.241 305.842 298.664 314.095C286.845 324.283 279.712 327.136 277.267 322.551C275.025 318.476 281.444 300.645 296.932 267.531L304.37 251.738L311.604 251.229C320.06 250.618 324.442 247.765 323.932 243.078C323.627 240.734 323.219 240.531 317.309 240.225C313.743 240.021 310.89 239.512 310.89 239.104C310.89 238.595 313.641 232.176 317.106 224.636C322.811 212.104 329.23 194.986 329.23 192.235C329.23 191.624 328.212 191.114 326.887 191.114C322.098 191.114 309.464 206.5 296.116 228.508L289.188 240.021H282.26C276.35 240.021 274.924 240.429 272.173 242.67C269.829 244.708 269.116 246.135 269.32 248.07C269.625 250.618 269.931 250.72 276.044 251.025C279.509 251.229 282.361 251.738 282.361 252.146C282.361 252.655 279.61 258.667 276.248 265.595C260.659 298.098 259.029 315.623 270.644 327.238C280.527 337.122 291.226 335.695 304.675 322.857C308.343 319.291 311.4 316.438 311.502 316.438C311.604 316.438 312.419 318.476 313.336 321.023C317.921 332.842 333.102 338.242 345.227 332.231C351.238 329.174 359.288 321.736 363.465 315.317C365.095 312.872 368.967 307.37 372.126 303.091C378.85 293.921 389.243 276.294 393.421 267.022L396.375 260.399H401.266C403.915 260.399 407.889 260.093 409.927 259.788L413.798 259.074L409.213 268.856C403.1 281.796 400.247 293.105 400.757 302.683C401.062 309.102 401.572 310.834 404.323 314.604C408.5 320.412 416.346 324.589 423.172 324.589C428.776 324.589 432.342 323.061 439.984 317.355L445.18 313.483L447.32 316.947C450.071 321.634 455.063 324.589 460.26 324.589C465.151 324.589 470.754 321.329 479.619 313.076L485.834 307.268L487.668 311.445C491.336 319.495 499.691 324.589 509.37 324.589C514.567 324.589 518.235 322.857 526.08 316.744L531.888 312.261L533.314 315.725C535.25 320.208 540.548 324.589 544.115 324.589C546.866 324.589 546.967 324.385 547.477 317.966C548.394 307.676 557.462 290.151 557.462 298.913C557.462 301.46 562.862 312.464 566.021 316.132C569.893 320.717 578.146 324.589 584.157 324.589C590.678 324.589 596.18 321.736 603.516 314.298L609.425 308.389L610.852 311.14C612.788 314.808 618.29 319.902 622.671 322.042C628.377 324.997 637.954 325.302 643.253 322.653C648.958 319.902 658.128 311.751 663.019 305.128L666.891 299.83L668.521 305.842C670.661 313.585 671.68 315.317 676.57 319.8C681.869 324.589 687.676 326.219 693.79 324.589C699.394 323.163 702.96 320.921 710.499 313.585L716.205 307.981L717.326 312.057C720.281 322.959 730.164 327.544 739.844 322.551C742.085 321.431 747.18 317.457 751.051 313.789L758.184 307.064L759.304 309.917C761.24 315.215 765.52 319.698 770.818 322.144C781.516 327.136 791.196 324.385 802.607 312.974C809.026 306.555 819.113 292.087 821.966 285.362C825.634 276.497 822.985 278.128 805.97 294.634C789.769 310.427 782.943 315.419 777.848 315.419C771.633 315.419 772.244 307.064 779.682 290.762C787.833 272.931 788.445 271.097 786.814 269.161C784.675 266.512 780.294 267.226 775.403 270.995C770.92 274.358 765.214 280.573 751.051 297.487C743.002 307.166 736.787 312.362 733.425 312.362C731.692 312.362 731.489 311.853 732.1 307.981C733.73 298.098 745.855 277.924 756.655 267.226C764.093 259.788 770.92 255.814 777.746 254.795C782.229 254.082 782.841 254.286 785.388 257.037C786.916 258.667 788.75 260.908 789.464 261.927C790.482 263.863 790.686 263.863 792.316 262.233C795.984 258.769 791.196 251.025 782.841 246.95C778.969 245.116 776.32 244.606 769.391 244.606C761.444 244.606 760.221 244.912 754.108 248.172C742.696 254.286 729.96 268.55 722.42 283.732C719.262 290.049 706.628 303.6 697.458 310.528C692.669 314.095 690.937 314.808 687.065 314.808L682.276 314.91V309.306C682.378 302.785 687.982 288.011 701.431 259.38L709.786 241.55L717.122 241.04C722.93 240.633 724.968 240.021 726.904 238.187C732.711 232.685 731.081 229.323 722.522 229.323C719.16 229.323 716.409 229.017 716.409 228.508C716.409 228.1 718.752 222.598 721.605 216.383C733.425 190.605 736.991 178.888 733.323 178.888C728.432 178.888 710.805 201.201 696.846 225.043C694.707 228.711 693.688 229.527 692.058 229.119C690.835 228.813 687.473 228.915 684.416 229.221C677.793 230.138 673.31 233.704 673.819 237.882C674.125 240.429 674.431 240.531 681.054 240.836C684.925 241.04 687.88 241.448 687.676 241.855C681.155 254.999 675.755 267.022 672.902 274.867L669.234 284.852L655.887 297.894C638.77 314.706 632.351 318.068 626.339 313.279C624.199 311.547 623.69 310.427 623.69 306.453C623.69 299.626 626.135 291.373 627.867 291.781C628.683 291.985 630.72 292.392 632.554 292.698C642.845 294.43 666.483 272.829 666.483 261.622C666.483 251.942 657.721 244.097 646.615 244.097C638.26 244.097 621.652 258.361 614.724 271.301C610.75 278.943 607.388 288.215 607.388 291.985C607.388 296.977 592.104 311.751 583.953 314.502C581.304 315.419 580.489 315.317 578.757 313.891C576.108 311.344 572.134 298.506 570.81 287.4L569.587 278.23L576.719 271.607C584.565 264.271 595.365 257.342 598.931 257.342C600.154 257.342 601.58 258.056 602.089 258.973C603.618 261.724 605.554 259.584 604.84 256.018C603.312 248.886 598.421 244.097 592.716 244.097C588.538 244.097 578.451 250.006 570.911 256.833L563.575 263.659L568.058 254.388C570.504 249.293 578.247 234.01 585.38 220.255C602.701 186.326 605.757 178.888 601.886 178.888C601.172 178.888 598.727 180.416 596.384 182.148ZM656.294 256.731C656.294 258.769 648.143 269.467 643.253 273.848C638.77 277.924 632.962 281.286 632.147 280.369C630.618 278.841 642.947 262.641 649.162 258.056C653.034 255.101 656.294 254.489 656.294 256.731Z" fill="black"/>
<path d="M217.151 344.763C208.593 348.94 201.664 349.551 196.06 346.597C192.291 344.661 191.272 344.559 192.291 346.087C193.717 348.431 203.396 352.099 208.287 352.099C215.827 352.099 223.571 348.125 226.423 342.623C227.85 340.076 226.016 340.483 217.151 344.763Z" fill="black"/>
<path d="M660.879 346.903C656.6 351.182 606.165 365.752 570.911 372.986C548.292 377.571 512.529 382.36 479.721 385.111C470.245 385.926 462.298 386.843 462.094 387.047C461.788 387.353 468.717 387.862 477.479 388.27C508.148 389.696 561.843 386.334 594.142 381.036C620.531 376.654 644.475 366.058 658.128 352.812C660.981 349.96 663.427 347.209 663.427 346.801C663.427 345.68 662 345.782 660.879 346.903Z" fill="black"/>
<path d="M231.824 350.876C232.945 352.71 258.214 366.159 275.229 374.107C334.936 401.719 399.33 418.429 469.837 424.542C491.743 426.478 540.141 426.274 559.296 424.134C614.52 417.919 665.362 399.783 699.393 374.107C711.009 365.344 721.096 356.48 720.382 355.767C720.077 355.461 716.918 357.193 713.25 359.638C673.31 386.232 620.633 403.349 553.794 411.194C507.23 416.696 456.693 415.576 409.723 408.138C350.525 398.662 298.052 382.36 248.126 358.11C239.772 354.035 232.537 350.468 232.028 350.265C231.519 349.959 231.417 350.265 231.824 350.876Z" fill="black"/>
</svg>
